# 3ds Max Wavefront OBJ Exporter v0.99 - (c)2007 guruware
# File Created: 09.02.2025 15:27:39

#
# object Plane001
#

v  -150.0000 -75.0000 0.0000
v  -150.0000 -150.0000 0.0000
v  -75.0000 -75.0000 0.0000
v  -75.0000 -150.0000 0.0000
v  0.0000 -75.0000 0.0000
v  0.0000 -150.0000 0.0000
v  75.0000 -75.0000 0.0000
v  75.0000 -150.0000 0.0000
v  150.0000 -75.0000 0.0000
v  150.0000 -150.0000 0.0000
v  -150.0000 0.0000 0.0000
v  -75.0000 0.0000 0.0000
v  0.0000 0.0000 0.0000
v  75.0000 0.0000 0.0000
v  150.0000 0.0000 0.0000
v  -150.0000 75.0000 0.0000
v  -75.0000 75.0000 0.0000
v  0.0000 75.0000 0.0000
v  75.0000 75.0000 0.0000
v  150.0000 75.0000 0.0000
v  -150.0000 150.0000 0.0000
v  -75.0000 150.0000 0.0000
v  0.0000 150.0000 0.0000
v  75.0000 150.0000 0.0000
v  150.0000 150.0000 0.0000
# 25 vertices

vn -0.8004 0.3076 0.5146
vn -0.6443 -0.6443 0.4120
vn 0.0000 0.0000 1.0000
vn 0.3076 -0.8004 0.5146
vn 0.4520 -0.1737 0.8750
vn -0.1737 0.4520 0.8750
vn 0.2112 0.2112 0.9544
# 7 vertex normals

vt 0.0000 0.0000 0.7500
vt 0.0000 0.0000 1.0000
vt 0.2500 1.0000 0.7500
vt 0.2500 0.0000 1.0000
vt 0.5000 0.0000 0.7500
vt 0.5000 0.0000 1.0000
vt 0.7500 0.0000 0.7500
vt 0.7500 0.0000 1.0000
vt 1.0000 0.0000 0.7500
vt 1.0000 0.0000 1.0000
vt 0.0000 0.0000 0.5000
vt 0.2500 0.0000 0.5000
vt 0.5000 0.0000 0.5000
vt 0.7500 0.0000 0.5000
vt 1.0000 0.0000 0.5000
vt 0.0000 0.0000 0.2500
vt 0.2500 0.0000 0.2500
vt 0.5000 0.0000 0.2500
vt 0.7500 0.0000 0.2500
vt 1.0000 0.0000 0.2500
vt 0.0000 0.0000 0.0000
vt 0.2500 0.0000 0.0000
vt 0.5000 0.0000 0.0000
vt 0.7500 0.0000 0.0000
vt 1.0000 0.0000 0.0000
# 25 texture coords

o Plane001
g Plane001
f 1/1/1 2/2/2 3/3/3 
f 4/4/4 3/3/3 2/2/2 
f 3/3/3 4/4/4 5/5/5 
f 6/6/3 5/5/5 4/4/4 
f 5/5/5 6/6/3 7/7/3 
f 8/8/3 7/7/3 6/6/3 
f 7/7/3 8/8/3 9/9/3 
f 10/10/3 9/9/3 8/8/3 
f 11/11/3 1/1/1 12/12/6 
f 3/3/3 12/12/6 1/1/1 
f 12/12/6 3/3/3 13/13/7 
f 5/5/5 13/13/7 3/3/3 
f 13/13/7 5/5/5 14/14/3 
f 7/7/3 14/14/3 5/5/5 
f 14/14/3 7/7/3 15/15/3 
f 9/9/3 15/15/3 7/7/3 
f 16/16/3 11/11/3 17/17/3 
f 12/12/6 17/17/3 11/11/3 
f 17/17/3 12/12/6 18/18/3 
f 13/13/7 18/18/3 12/12/6 
f 18/18/3 13/13/7 19/19/3 
f 14/14/3 19/19/3 13/13/7 
f 19/19/3 14/14/3 20/20/3 
f 15/15/3 20/20/3 14/14/3 
f 21/21/3 16/16/3 22/22/3 
f 17/17/3 22/22/3 16/16/3 
f 22/22/3 17/17/3 23/23/3 
f 18/18/3 23/23/3 17/17/3 
f 23/23/3 18/18/3 24/24/3 
f 19/19/3 24/24/3 18/18/3 
f 24/24/3 19/19/3 25/25/3 
f 20/20/3 25/25/3 19/19/3 
# 32 faces

