# 3ds Max Wavefront OBJ Exporter v0.99 - (c)2007 guruware
# File Created: 25.01.2025 14:02:15

#
# object Cone001
#

v  150.0000 0.0000 0.0000
v  37.9463 2.6957 0.0000
v  101.7737 -8.7586 0.0000
v  150.0000 75.0000 0.0000
v  14.1869 20.0424 0.0000
v  150.0000 150.0000 0.0000
v  7.7210 52.9478 0.0000
v  75.0000 150.0000 0.0000
v  -7.1216 70.3402 0.0000
v  0.0000 150.0000 -0.0000
v  -39.5238 73.4488 0.0000
v  -75.0000 150.0000 0.0000
v  -79.4743 52.2434 0.0000
v  -150.0000 150.0000 0.0000
v  -103.6816 21.9729 0.0000
v  -150.0000 75.0000 0.0000
v  -108.0522 0.0000 0.0000
v  -150.0000 0.0000 0.0000
v  -109.4213 -46.5052 0.0000
v  -150.0000 -75.0000 0.0000
v  -84.0653 -58.0420 0.0000
v  -150.0000 -150.0000 0.0000
v  -34.9397 -46.1951 0.0000
v  -75.0000 -150.0000 0.0000
v  -7.1173 -50.9794 0.0000
v  0.0000 -150.0000 0.0000
v  21.9729 -53.0473 0.0000
v  75.0000 -150.0000 0.0000
v  48.5342 -43.0430 0.0000
v  150.0000 -150.0000 0.0000
v  97.4031 -30.7315 0.0000
v  150.0000 -75.0000 0.0000
v  -2.7403 -1.0646 106.7203
v  63.9753 -15.4319 87.2191
v  22.4095 -4.2447 99.3689
v  5.1832 11.0533 104.4043
v  2.3468 35.8126 105.2333
v  -5.8467 47.4904 107.6283
v  -26.1000 51.1316 113.5484
v  -53.6543 38.5609 121.6027
v  -71.1861 18.9463 126.7273
v  -75.1173 4.2386 127.8764
v  -78.2737 -27.0652 128.7990
v  -64.0048 -35.2298 124.6282
v  -29.4688 -29.3716 114.5331
v  -9.7758 -34.5129 108.7768
v  9.5994 -37.4853 103.1134
v  28.1979 -31.8089 97.6770
v  61.1898 -25.8536 88.0333
v  34.3599 -1.6447 21.2721
v  94.5506 -12.4584 18.4350
v  8.3190 17.3889 22.4996
v  1.7457 50.8784 22.8094
v  -11.0927 65.9389 23.4145
v  -40.2351 68.7379 24.7882
v  -78.0819 48.6267 26.5721
v  -100.9687 19.9757 27.6509
v  -105.0411 -0.5200 27.8428
v  -106.3074 -43.5844 27.9025
v  -85.2004 -53.1987 26.9076
v  -36.7469 -41.5008 24.6238
v  -8.2461 -46.4072 23.2804
v  19.5804 -48.3874 21.9688
v  45.4147 -38.6462 20.7510
v  91.6650 -26.9814 18.5710
v  19.5408 -4.6116 22.9482
v  69.5554 -17.5463 20.5907
v  -1.1870 13.0763 23.9252
v  -4.5998 41.7033 24.0861
v  -14.4588 55.2053 24.5508
v  -38.8288 59.4154 25.6994
v  -71.9838 44.8810 27.2622
v  -93.0792 22.2022 28.2566
v  -97.8094 5.1969 28.4795
v  -101.6074 -30.9970 28.6585
v  -84.4382 -40.4370 27.8493
v  -42.8824 -33.6636 25.8905
v  -19.1865 -39.6081 24.7736
v  4.1269 -43.0449 23.6747
v  26.5058 -36.4817 22.6199
v  66.2036 -29.5961 20.7487
v  20.3016 -4.4966 48.5173
v  67.8023 -16.8345 43.5496
v  0.6157 12.3751 50.5761
v  -2.6256 39.6812 50.9151
v  -11.9890 52.5602 51.8943
v  -35.1341 56.5760 54.3149
v  -66.6226 42.7122 57.6081
v  -86.6577 21.0799 59.7034
v  -91.1501 4.8593 60.1732
v  -94.7572 -29.6645 60.5505
v  -78.4510 -38.6690 58.8451
v  -38.9839 -32.2081 54.7175
v  -16.4791 -37.8783 52.3639
v  5.6625 -41.1565 50.0483
v  26.9165 -34.8962 47.8255
v  64.6190 -28.3283 43.8825
v  16.0410 -4.1700 50.6202
v  57.8752 -15.0360 46.2451
v  -1.2966 10.6891 52.4334
v  -4.1512 34.7378 52.7320
v  -12.3976 46.0804 53.5944
v  -32.7817 49.6172 55.7262
v  -60.5139 37.4073 58.6265
v  -78.1590 18.3555 60.4719
v  -82.1155 4.0699 60.8857
v  -85.2923 -26.3356 61.2179
v  -70.9312 -34.2659 59.7160
v  -36.1723 -28.5757 56.0808
v  -16.3521 -33.5694 54.0080
v  3.1482 -36.4566 51.9686
v  21.8668 -30.9431 50.0109
v  55.0716 -25.1587 46.5383
v  17.1124 -4.1085 80.4241
v  57.3281 -14.6819 72.8153
v  0.4456 10.3502 83.5775
v  -2.2986 33.7511 84.0967
v  -10.2260 44.7881 85.5966
v  -29.8215 48.2296 89.3040
v  -56.4808 36.3486 94.3480
v  -73.4432 17.8101 97.5573
v  -77.2467 3.9093 98.2769
v  -80.3006 -25.6770 98.8547
v  -66.4951 -33.3936 96.2427
v  -33.0809 -27.8568 89.9207
v  -14.0275 -32.7160 86.3158
v  4.7184 -35.5254 82.7691
v  22.7128 -30.1604 79.3645
v  54.6331 -24.5318 73.3252
# 129 vertices

vn 0.0000 0.0000 1.0000
vn -0.0000 0.0000 1.0000
vn -0.0000 -0.0000 1.0000
vn 0.0000 -0.0000 1.0000
vn 0.2806 0.0000 0.9598
vn 0.2806 -0.0000 0.9598
vn 0.1721 0.9591 0.2247
vn 0.1826 0.9477 0.2617
vn 0.5722 0.7837 0.2417
vn 0.5783 0.7747 0.2556
vn 0.9462 0.1859 0.2648
vn 0.9458 0.1832 0.2683
vn 0.7378 0.6296 0.2435
vn 0.7417 0.6222 0.2507
vn 0.0938 0.9776 0.1885
vn 0.1030 0.9742 0.2006
vn -0.4640 0.8742 0.1433
vn -0.4581 0.8756 0.1533
vn -0.7753 0.6200 0.1208
vn -0.7729 0.6221 0.1252
vn -0.9749 0.1939 0.1091
vn -0.9747 0.1947 0.1097
vn -0.9937 0.0293 0.1078
vn -0.9937 0.0294 0.1080
vn -0.4098 -0.9006 0.1448
vn -0.4050 -0.9036 0.1398
vn 0.2298 -0.9528 0.1985
vn 0.2389 -0.9539 0.1818
vn -0.1666 -0.9690 0.1822
vn -0.1591 -0.9719 0.1736
vn -0.0695 -0.9774 0.1997
vn -0.0608 -0.9800 0.1895
vn 0.3418 -0.9076 0.2437
vn 0.3528 -0.9068 0.2308
vn 0.2358 -0.9359 0.2618
vn 0.2481 -0.9395 0.2364
vn 0.9271 -0.1844 0.3263
vn 0.9286 -0.1815 0.3236
vn 0.0770 0.1706 0.9823
vn 0.0686 0.0841 0.9941
vn 0.1095 0.0860 0.9903
vn 0.0999 0.0622 0.9931
vn 0.1648 0.0232 0.9861
vn 0.1432 0.0115 0.9896
vn 0.1240 0.0659 0.9901
vn 0.1210 0.0542 0.9912
vn 0.0569 0.1056 0.9928
vn 0.0617 0.0859 0.9944
vn -0.0269 0.1385 0.9900
vn 0.0040 0.0979 0.9952
vn -0.1112 0.1260 0.9858
vn -0.0546 0.0943 0.9940
vn -0.1125 0.0316 0.9932
vn -0.0869 0.0372 0.9955
vn -0.1759 0.0065 0.9844
vn -0.0998 0.0154 0.9949
vn 0.0131 -0.0744 0.9971
vn 0.0117 -0.0643 0.9979
vn 0.0719 -0.1041 0.9920
vn 0.0595 -0.0770 0.9953
vn 0.0127 -0.1950 0.9807
vn 0.0081 -0.1534 0.9881
vn 0.0299 -0.2244 0.9740
vn 0.0190 -0.1852 0.9825
vn 0.0860 -0.1042 0.9908
vn 0.0756 -0.0982 0.9923
vn 0.1078 -0.2473 0.9629
vn 0.0768 -0.1762 0.9814
vn 0.0876 -0.0081 0.9961
vn 0.0863 -0.0110 0.9962
vn 0.2498 0.9682 -0.0118
vn 0.2503 0.9681 -0.0109
vn 0.6483 0.7610 -0.0238
vn 0.6492 0.7603 -0.0227
vn 0.9909 0.1185 -0.0640
vn 0.9909 0.1184 -0.0639
vn 0.8073 0.5900 -0.0158
vn 0.8082 0.5887 -0.0151
vn 0.1732 0.9820 0.0751
vn 0.1784 0.9808 0.0788
vn -0.3925 0.9099 0.1344
vn -0.3866 0.9115 0.1404
vn -0.7177 0.6751 0.1707
vn -0.7139 0.6781 0.1746
vn -0.9431 0.2650 0.2010
vn -0.9423 0.2668 0.2020
vn -0.9734 0.1032 0.2048
vn -0.9731 0.1039 0.2056
vn -0.4719 -0.8703 0.1408
vn -0.4678 -0.8731 0.1370
vn 0.1621 -0.9864 0.0279
vn 0.1640 -0.9862 0.0246
vn -0.2387 -0.9674 0.0841
vn -0.2356 -0.9685 0.0808
vn -0.1417 -0.9868 0.0789
vn -0.1383 -0.9875 0.0755
vn 0.2834 -0.9574 0.0556
vn 0.2871 -0.9565 0.0518
vn 0.1735 -0.9826 0.0657
vn 0.1773 -0.9824 0.0589
vn 0.9605 -0.2661 0.0816
vn 0.9612 -0.2639 0.0803
vn 0.2692 0.8714 0.4101
vn 0.4297 0.4028 0.8081
vn 0.6629 0.0694 0.7455
vn 0.3848 0.2115 0.8985
vn 0.1425 0.2428 0.9596
vn 0.0130 0.2030 0.9791
vn -0.0453 0.1378 0.9894
vn -0.0742 0.0494 0.9960
vn -0.0770 0.0189 0.9969
vn -0.0023 -0.1902 0.9817
vn 0.1662 -0.4566 0.8740
vn 0.0078 -0.3567 0.9342
vn 0.0447 -0.3573 0.9329
vn 0.1827 -0.2865 0.9405
vn 0.1536 -0.3205 0.9347
vn 0.2546 -0.0425 0.9661
vn 0.2503 0.9681 -0.0110
vn 0.2529 0.9675 -0.0077
vn 0.6488 0.7604 -0.0280
vn 0.6524 0.7575 -0.0250
vn 0.9915 0.1184 -0.0548
vn 0.9916 0.1175 -0.0542
vn 0.8073 0.5893 -0.0310
vn 0.8100 0.5857 -0.0294
vn 0.1735 0.9845 0.0254
vn 0.1780 0.9836 0.0276
vn -0.3956 0.9156 0.0718
vn -0.3945 0.9160 0.0726
vn -0.7249 0.6813 0.1022
vn -0.7251 0.6811 0.1020
vn -0.9552 0.2682 0.1255
vn -0.9553 0.2679 0.1254
vn -0.9861 0.1044 0.1290
vn -0.9862 0.1043 0.1289
vn -0.4756 -0.8761 0.0787
vn -0.4751 -0.8765 0.0783
vn 0.1622 -0.9867 0.0061
vn 0.1641 -0.9864 0.0036
vn -0.2399 -0.9699 0.0429
vn -0.2393 -0.9700 0.0425
vn -0.1426 -0.9891 0.0372
vn -0.1414 -0.9893 0.0363
vn 0.2842 -0.9586 0.0174
vn 0.2882 -0.9575 0.0143
vn 0.1742 -0.9844 0.0259
vn 0.1775 -0.9839 0.0211
vn 0.9636 -0.2662 0.0234
vn 0.9646 -0.2628 0.0219
vn 0.2430 0.9681 -0.0610
vn 0.2426 0.9682 -0.0615
vn 0.6276 0.7601 -0.1684
vn 0.6262 0.7610 -0.1696
vn 0.9673 0.1184 -0.2242
vn 0.9674 0.1183 -0.2240
vn 0.7763 0.5883 -0.2265
vn 0.7745 0.5901 -0.2278
vn 0.1456 0.9794 -0.1396
vn 0.1333 0.9802 -0.1467
vn -0.4118 0.9107 -0.0312
vn -0.4250 0.9041 -0.0430
vn -0.7348 0.6776 0.0305
vn -0.7424 0.6695 0.0227
vn -0.9616 0.2665 0.0662
vn -0.9628 0.2624 0.0643
vn -0.9920 0.1038 0.0720
vn -0.9923 0.1021 0.0702
vn -0.4898 -0.8717 -0.0134
vn -0.4981 -0.8671 -0.0065
vn 0.1477 -0.9856 -0.0823
vn 0.1450 -0.9865 -0.0765
vn -0.2523 -0.9672 -0.0296
vn -0.2584 -0.9658 -0.0215
vn -0.1585 -0.9857 -0.0569
vn -0.1650 -0.9851 -0.0476
vn 0.2537 -0.9536 -0.1618
vn 0.2477 -0.9569 -0.1516
vn 0.1437 -0.9779 -0.1519
vn 0.1392 -0.9817 -0.1301
vn 0.8715 -0.2600 -0.4157
vn 0.8716 -0.2652 -0.4124
# 182 vertex normals

vt 1.0000 0.5000 0.0000
vt 0.6265 0.5090 0.0000
vt 0.8392 0.4708 0.0000
vt 1.0000 0.7500 0.0000
vt 0.5473 0.5668 0.0000
vt 1.0000 1.0000 0.0000
vt 0.5257 0.6765 0.0000
vt 0.7500 1.0000 0.0000
vt 0.4763 0.7345 0.0000
vt 0.5000 1.0000 0.0000
vt 0.3683 0.7448 0.0000
vt 0.2500 1.0000 0.0000
vt 0.2351 0.6741 0.0000
vt 0.0000 1.0000 0.0000
vt 0.1544 0.5732 0.0000
vt 0.0000 0.7500 0.0000
vt 0.1398 0.5000 0.0000
vt 0.0000 0.5000 0.0000
vt 0.1353 0.3450 0.0000
vt 0.0000 0.2500 0.0000
vt 0.2198 0.3065 0.0000
vt 0.0000 0.0000 0.0000
vt 0.3835 0.3460 0.0000
vt 0.2500 0.0000 0.0000
vt 0.4763 0.3301 0.0000
vt 0.5000 0.0000 0.0000
vt 0.5732 0.3232 0.0000
vt 0.7500 0.0000 0.0000
vt 0.6618 0.3565 0.0000
vt 1.0000 0.0000 0.0000
vt 0.8247 0.3976 0.0000
vt 1.0000 0.2500 0.0000
vt 0.4909 0.4965 0.9691
vt 0.7133 0.4486 0.7920
vt 0.5747 0.4859 0.9024
vt 0.5173 0.5368 0.9481
vt 0.5078 0.6194 0.9556
vt 0.4805 0.6583 0.9774
vt 0.4130 0.6704 1.0311
vt 0.3212 0.6285 1.1043
vt 0.2627 0.5632 1.1508
vt 0.2496 0.5141 1.1612
vt 0.2391 0.4098 1.1696
vt 0.2867 0.3826 1.1317
vt 0.4018 0.4021 1.0401
vt 0.4674 0.3850 0.9878
vt 0.5320 0.3750 0.9364
vt 0.5940 0.3940 0.8870
vt 0.7040 0.4138 0.7994
vt 0.1608 0.0000 0.4708
vt 0.3735 0.0000 0.5090
vt 0.3855 0.1932 0.4945
vt 0.1848 0.1674 0.4585
vt 0.4527 0.0000 0.5668
vt 0.4723 0.2043 0.5580
vt 0.5668 0.0000 0.5473
vt 0.6765 0.0000 0.5257
vt 0.6696 0.2071 0.5058
vt 0.5580 0.2043 0.5277
vt 0.7345 0.0000 0.4763
vt 0.7198 0.2126 0.4630
vt 0.5237 0.0000 0.7345
vt 0.6317 0.0000 0.7448
vt 0.6341 0.2251 0.7291
vt 0.5370 0.2126 0.7198
vt 0.7649 0.0000 0.6741
vt 0.7603 0.2413 0.6621
vt 0.3259 0.0000 0.2351
vt 0.4268 0.0000 0.1544
vt 0.4334 0.2511 0.1634
vt 0.3379 0.2413 0.2397
vt 0.5000 0.0000 0.1398
vt 0.5017 0.2528 0.1499
vt 0.6550 0.0000 0.1353
vt 0.6453 0.2534 0.1456
vt 0.1353 0.0000 0.3450
vt 0.2198 0.0000 0.3065
vt 0.2160 0.2443 0.3227
vt 0.1456 0.2534 0.3547
vt 0.3835 0.0000 0.3460
vt 0.3775 0.2236 0.3617
vt 0.4763 0.0000 0.3301
vt 0.4725 0.2114 0.3453
vt 0.5732 0.0000 0.3232
vt 0.5653 0.1995 0.3387
vt 0.6618 0.0000 0.3565
vt 0.6514 0.1884 0.3712
vt 0.8247 0.0000 0.3976
vt 0.8055 0.1686 0.4101
vt 0.3976 0.0000 0.8247
vt 0.4708 0.0000 0.8392
vt 0.4585 0.1674 0.8152
vt 0.4101 0.1686 0.8055
vt 0.8152 0.4585 0.1674
vt 0.6145 0.4945 0.1932
vt 0.5651 0.4846 0.2084
vt 0.7319 0.4415 0.1870
vt 0.5277 0.5580 0.2043
vt 0.4960 0.5436 0.2173
vt 0.5058 0.6696 0.2071
vt 0.4847 0.6390 0.2187
vt 0.4630 0.7198 0.2126
vt 0.4518 0.6840 0.2229
vt 0.3659 0.7291 0.2251
vt 0.3706 0.6981 0.2334
vt 0.2397 0.6621 0.2413
vt 0.2601 0.6496 0.2476
vt 0.1634 0.5666 0.2511
vt 0.1897 0.5740 0.2566
vt 0.1499 0.4983 0.2528
vt 0.1740 0.5173 0.2586
vt 0.1456 0.3547 0.2534
vt 0.1613 0.3967 0.2602
vt 0.2160 0.3227 0.2443
vt 0.2185 0.3652 0.2529
vt 0.3775 0.3617 0.2236
vt 0.3571 0.3878 0.2351
vt 0.4725 0.3453 0.2114
vt 0.4360 0.3680 0.2250
vt 0.5653 0.3387 0.1995
vt 0.5138 0.3565 0.2150
vt 0.6514 0.3712 0.1884
vt 0.5884 0.3784 0.2054
vt 0.8055 0.4101 0.1686
vt 0.7207 0.4013 0.1884
vt 0.2681 0.1870 0.4415
vt 0.4349 0.2084 0.4846
vt 0.4323 0.4406 0.4850
vt 0.2740 0.3955 0.4439
vt 0.5040 0.2173 0.5436
vt 0.4979 0.4593 0.5413
vt 0.5436 0.2173 0.4960
vt 0.6390 0.2187 0.4847
vt 0.6323 0.4624 0.4912
vt 0.5413 0.4593 0.5021
vt 0.6840 0.2229 0.4518
vt 0.6752 0.4712 0.4600
vt 0.5482 0.2229 0.6840
vt 0.6294 0.2334 0.6981
vt 0.6171 0.4932 0.6886
vt 0.5400 0.4712 0.6752
vt 0.7399 0.2476 0.6496
vt 0.7221 0.5231 0.6424
vt 0.3504 0.2476 0.2601
vt 0.4260 0.2566 0.1897
vt 0.4297 0.5422 0.2111
vt 0.3576 0.5231 0.2779
vt 0.4827 0.2586 0.1740
vt 0.4838 0.5464 0.1962
vt 0.6033 0.2602 0.1613
vt 0.5989 0.5499 0.1841
vt 0.1613 0.2602 0.3967
vt 0.2185 0.2529 0.3652
vt 0.2385 0.5344 0.3711
vt 0.1841 0.5499 0.4011
vt 0.3571 0.2351 0.3878
vt 0.3701 0.4969 0.3926
vt 0.4360 0.2250 0.3680
vt 0.4451 0.4755 0.3737
vt 0.5138 0.2150 0.3565
vt 0.5189 0.4545 0.3628
vt 0.5884 0.2054 0.3784
vt 0.5897 0.4343 0.3837
vt 0.7207 0.1884 0.4013
vt 0.7154 0.3985 0.4056
vt 0.4013 0.1884 0.7207
vt 0.4415 0.1870 0.7319
vt 0.4439 0.3955 0.7260
vt 0.4056 0.3985 0.7154
vt 0.7260 0.4439 0.3955
vt 0.5677 0.4850 0.4406
vt 0.5535 0.4861 0.4597
vt 0.6929 0.4499 0.4199
vt 0.5021 0.5413 0.4593
vt 0.4957 0.5356 0.4761
vt 0.4912 0.6323 0.4624
vt 0.4862 0.6158 0.4789
vt 0.4600 0.6752 0.4712
vt 0.4587 0.6536 0.4867
vt 0.3829 0.6886 0.4932
vt 0.3907 0.6654 0.5060
vt 0.2779 0.6424 0.5231
vt 0.2983 0.6247 0.5324
vt 0.2111 0.5703 0.5422
vt 0.2395 0.5612 0.5491
vt 0.1962 0.5162 0.5464
vt 0.2263 0.5136 0.5529
vt 0.1841 0.4011 0.5499
vt 0.2157 0.4122 0.5559
vt 0.2385 0.3711 0.5344
vt 0.2636 0.3858 0.5423
vt 0.3701 0.3926 0.4969
vt 0.3794 0.4047 0.5093
vt 0.4451 0.3737 0.4755
vt 0.4455 0.3881 0.4904
vt 0.5189 0.3628 0.4545
vt 0.5105 0.3785 0.4719
vt 0.5897 0.3837 0.4343
vt 0.5729 0.3969 0.4541
vt 0.7154 0.4056 0.3985
vt 0.6836 0.4161 0.4226
vt 0.3071 0.4199 0.4499
vt 0.4465 0.4597 0.4861
vt 0.4430 0.7303 0.4863
vt 0.3089 0.6612 0.4511
vt 0.5043 0.4761 0.5356
vt 0.4985 0.7590 0.5345
vt 0.5356 0.4761 0.4957
vt 0.6158 0.4789 0.4862
vt 0.6125 0.7637 0.4923
vt 0.5345 0.7590 0.5015
vt 0.6536 0.4867 0.4587
vt 0.6493 0.7773 0.4659
vt 0.5413 0.4867 0.6536
vt 0.6093 0.5060 0.6654
vt 0.5994 0.8110 0.6608
vt 0.5341 0.7773 0.6493
vt 0.7017 0.5324 0.6247
vt 0.6883 0.8568 0.6212
vt 0.3753 0.5324 0.2983
vt 0.4388 0.5491 0.2395
vt 0.4406 0.8859 0.2552
vt 0.3788 0.8568 0.3117
vt 0.4864 0.5529 0.2263
vt 0.4870 0.8924 0.2425
vt 0.5878 0.5559 0.2157
vt 0.5856 0.8977 0.2323
vt 0.2157 0.5559 0.4122
vt 0.2636 0.5423 0.3858
vt 0.2783 0.8740 0.3887
vt 0.2323 0.8977 0.4144
vt 0.3794 0.5093 0.4047
vt 0.3897 0.8166 0.4071
vt 0.4455 0.4904 0.3881
vt 0.4532 0.7838 0.3909
vt 0.5105 0.4719 0.3785
vt 0.5157 0.7516 0.3816
vt 0.5729 0.4541 0.3969
vt 0.5757 0.7207 0.3995
vt 0.6836 0.4226 0.4161
vt 0.6821 0.6659 0.4182
vt 0.4161 0.4226 0.6836
vt 0.4499 0.4199 0.6929
vt 0.4511 0.6612 0.6911
vt 0.4182 0.6659 0.6821
vt 0.4253 0.9024 0.4859
vt 0.2867 0.7920 0.4486
vt 0.4827 0.9481 0.5368
vt 0.6194 0.9556 0.5078
vt 0.5368 0.9481 0.5173
vt 0.6583 0.9774 0.4805
vt 0.5870 1.0311 0.6704
vt 0.5195 0.9774 0.6583
vt 0.6788 1.1043 0.6285
vt 0.4368 1.1508 0.2627
vt 0.3715 1.1043 0.3212
vt 0.4859 1.1612 0.2496
vt 0.5902 1.1696 0.2391
vt 0.2867 1.1317 0.3826
vt 0.2391 1.1696 0.4098
vt 0.4018 1.0401 0.4021
vt 0.4674 0.9878 0.3850
vt 0.5320 0.9364 0.3750
vt 0.5940 0.8870 0.3940
vt 0.7040 0.7994 0.4138
vt 0.3179 0.4182 0.6659
vt 0.3089 0.4511 0.6612
vt 0.2867 0.4486 0.7920
vt 0.2960 0.4138 0.7994
# 269 texture coords

o Cone001
g Cone001
f 1/1/1 2/2/1 3/3/1 
f 1/1/1 4/4/1 2/2/1 
f 4/4/1 5/5/1 2/2/1 
f 4/4/1 6/6/1 5/5/1 
f 6/6/1 7/7/1 5/5/1 
f 6/6/1 8/8/2 7/7/1 
f 8/8/2 9/9/1 7/7/1 
f 8/8/2 10/10/2 9/9/1 
f 10/10/2 11/11/2 9/9/1 
f 10/10/2 12/12/2 11/11/2 
f 12/12/2 13/13/2 11/11/2 
f 12/12/2 14/14/2 13/13/2 
f 14/14/2 15/15/2 13/13/2 
f 14/14/2 16/16/3 15/15/2 
f 16/16/3 17/17/3 15/15/2 
f 16/16/3 18/18/3 17/17/3 
f 18/18/3 19/19/3 17/17/3 
f 18/18/3 20/20/3 19/19/3 
f 20/20/3 21/21/3 19/19/3 
f 20/20/3 22/22/3 21/21/3 
f 22/22/3 23/23/3 21/21/3 
f 22/22/3 24/24/3 23/23/3 
f 24/24/3 25/25/4 23/23/3 
f 24/24/3 26/26/4 25/25/4 
f 26/26/4 27/27/4 25/25/4 
f 26/26/4 28/28/4 27/27/4 
f 28/28/4 29/29/4 27/27/4 
f 28/28/4 30/30/4 29/29/4 
f 30/30/4 31/31/4 29/29/4 
f 30/30/4 32/32/4 31/31/4 
f 32/32/4 3/3/1 31/31/4 
f 32/32/4 1/1/1 3/3/1 
f 33/33/5 34/34/6 35/35/5 
f 33/33/5 35/35/5 36/36/6 
f 33/33/5 36/36/6 37/37/6 
f 33/33/5 37/37/6 38/38/6 
f 33/33/5 38/38/6 39/39/6 
f 33/33/5 39/39/6 40/40/5 
f 33/33/5 40/40/5 41/41/6 
f 33/33/5 41/41/6 42/42/6 
f 33/33/5 42/42/6 43/43/5 
f 33/33/5 43/43/5 44/44/5 
f 33/33/5 44/44/5 45/45/6 
f 33/33/5 45/45/6 46/46/5 
f 33/33/5 46/46/5 47/47/5 
f 33/33/5 47/47/5 48/48/5 
f 33/33/5 48/48/5 49/49/6 
f 33/33/5 49/49/6 34/34/6 
f 3/50/7 2/51/7 50/52/7 
f 50/52/8 51/53/8 3/50/8 
f 2/51/9 5/54/9 52/55/9 
f 52/55/10 50/52/10 2/51/10 
f 5/56/11 7/57/11 53/58/11 
f 53/58/12 52/59/12 5/56/12 
f 7/57/13 9/60/13 54/61/13 
f 54/61/14 53/58/14 7/57/14 
f 9/62/15 11/63/15 55/64/15 
f 55/64/16 54/65/16 9/62/16 
f 11/63/17 13/66/17 56/67/17 
f 56/67/18 55/64/18 11/63/18 
f 13/68/19 15/69/19 57/70/19 
f 57/70/20 56/71/20 13/68/20 
f 15/69/21 17/72/21 58/73/21 
f 58/73/22 57/70/22 15/69/22 
f 17/72/23 19/74/23 59/75/23 
f 59/75/24 58/73/24 17/72/24 
f 19/76/25 21/77/25 60/78/25 
f 60/78/26 59/79/26 19/76/26 
f 21/77/27 23/80/27 61/81/27 
f 61/81/28 60/78/28 21/77/28 
f 23/80/29 25/82/29 62/83/29 
f 62/83/30 61/81/30 23/80/30 
f 25/82/31 27/84/31 63/85/31 
f 63/85/32 62/83/32 25/82/32 
f 27/84/33 29/86/33 64/87/33 
f 64/87/34 63/85/34 27/84/34 
f 29/86/35 31/88/35 65/89/35 
f 65/89/36 64/87/36 29/86/36 
f 31/90/37 3/91/37 51/92/37 
f 51/92/38 65/93/38 31/90/38 
f 51/94/39 50/95/39 66/96/39 
f 66/96/40 67/97/40 51/94/40 
f 50/95/41 52/98/41 68/99/41 
f 68/99/42 66/96/42 50/95/42 
f 52/98/43 53/100/43 69/101/43 
f 69/101/44 68/99/44 52/98/44 
f 53/100/45 54/102/45 70/103/45 
f 70/103/46 69/101/46 53/100/46 
f 54/102/47 55/104/47 71/105/47 
f 71/105/48 70/103/48 54/102/48 
f 55/104/49 56/106/49 72/107/49 
f 72/107/50 71/105/50 55/104/50 
f 56/106/51 57/108/51 73/109/51 
f 73/109/52 72/107/52 56/106/52 
f 57/108/53 58/110/53 74/111/53 
f 74/111/54 73/109/54 57/108/54 
f 58/110/55 59/112/55 75/113/55 
f 75/113/56 74/111/56 58/110/56 
f 59/112/57 60/114/57 76/115/57 
f 76/115/58 75/113/58 59/112/58 
f 60/114/59 61/116/59 77/117/59 
f 77/117/60 76/115/60 60/114/60 
f 61/116/61 62/118/61 78/119/61 
f 78/119/62 77/117/62 61/116/62 
f 62/118/63 63/120/63 79/121/63 
f 79/121/64 78/119/64 62/118/64 
f 63/120/65 64/122/65 80/123/65 
f 80/123/66 79/121/66 63/120/66 
f 64/122/67 65/124/67 81/125/67 
f 81/125/68 80/123/68 64/122/68 
f 65/124/69 51/94/69 67/97/69 
f 67/97/70 81/125/70 65/124/70 
f 67/126/71 66/127/71 82/128/71 
f 82/128/72 83/129/72 67/126/72 
f 66/127/73 68/130/73 84/131/73 
f 84/131/74 82/128/74 66/127/74 
f 68/132/75 69/133/75 85/134/75 
f 85/134/76 84/135/76 68/132/76 
f 69/133/77 70/136/77 86/137/77 
f 86/137/78 85/134/78 69/133/78 
f 70/138/79 71/139/79 87/140/79 
f 87/140/80 86/141/80 70/138/80 
f 71/139/81 72/142/81 88/143/81 
f 88/143/82 87/140/82 71/139/82 
f 72/144/83 73/145/83 89/146/83 
f 89/146/84 88/147/84 72/144/84 
f 73/145/85 74/148/85 90/149/85 
f 90/149/86 89/146/86 73/145/86 
f 74/148/87 75/150/87 91/151/87 
f 91/151/88 90/149/88 74/148/88 
f 75/152/89 76/153/89 92/154/89 
f 92/154/90 91/155/90 75/152/90 
f 76/153/91 77/156/91 93/157/91 
f 93/157/92 92/154/92 76/153/92 
f 77/156/93 78/158/93 94/159/93 
f 94/159/94 93/157/94 77/156/94 
f 78/158/95 79/160/95 95/161/95 
f 95/161/96 94/159/96 78/158/96 
f 79/160/97 80/162/97 96/163/97 
f 96/163/98 95/161/98 79/160/98 
f 80/162/99 81/164/99 97/165/99 
f 97/165/100 96/163/100 80/162/100 
f 81/166/101 67/167/101 83/168/101 
f 83/168/102 97/169/102 81/166/102 
f 83/170/103 82/171/103 98/172/103 
f 98/172/103 99/173/103 83/170/103 
f 82/171/104 84/174/104 100/175/104 
f 100/175/104 98/172/104 82/171/104 
f 84/174/105 85/176/105 101/177/105 
f 101/177/105 100/175/105 84/174/105 
f 85/176/106 86/178/106 102/179/106 
f 102/179/106 101/177/106 85/176/106 
f 86/178/107 87/180/107 103/181/107 
f 103/181/107 102/179/107 86/178/107 
f 87/180/108 88/182/108 104/183/108 
f 104/183/108 103/181/108 87/180/108 
f 88/182/109 89/184/109 105/185/109 
f 105/185/109 104/183/109 88/182/109 
f 89/184/110 90/186/110 106/187/110 
f 106/187/110 105/185/110 89/184/110 
f 90/186/111 91/188/111 107/189/111 
f 107/189/111 106/187/111 90/186/111 
f 91/188/112 92/190/112 108/191/112 
f 108/191/112 107/189/112 91/188/112 
f 92/190/113 93/192/113 109/193/113 
f 109/193/113 108/191/113 92/190/113 
f 93/192/114 94/194/114 110/195/114 
f 110/195/114 109/193/114 93/192/114 
f 94/194/115 95/196/115 111/197/115 
f 111/197/115 110/195/115 94/194/115 
f 95/196/116 96/198/116 112/199/116 
f 112/199/116 111/197/116 95/196/116 
f 96/198/117 97/200/117 113/201/117 
f 113/201/117 112/199/117 96/198/117 
f 97/200/118 83/170/118 99/173/118 
f 99/173/118 113/201/118 97/200/118 
f 99/202/119 98/203/119 114/204/119 
f 114/204/120 115/205/120 99/202/120 
f 98/203/121 100/206/121 116/207/121 
f 116/207/122 114/204/122 98/203/122 
f 100/208/123 101/209/123 117/210/123 
f 117/210/124 116/211/124 100/208/124 
f 101/209/125 102/212/125 118/213/125 
f 118/213/126 117/210/126 101/209/126 
f 102/214/127 103/215/127 119/216/127 
f 119/216/128 118/217/128 102/214/128 
f 103/215/129 104/218/129 120/219/129 
f 120/219/130 119/216/130 103/215/130 
f 104/220/131 105/221/131 121/222/131 
f 121/222/132 120/223/132 104/220/132 
f 105/221/133 106/224/133 122/225/133 
f 122/225/134 121/222/134 105/221/134 
f 106/224/135 107/226/135 123/227/135 
f 123/227/136 122/225/136 106/224/136 
f 107/228/137 108/229/137 124/230/137 
f 124/230/138 123/231/138 107/228/138 
f 108/229/139 109/232/139 125/233/139 
f 125/233/140 124/230/140 108/229/140 
f 109/232/141 110/234/141 126/235/141 
f 126/235/142 125/233/142 109/232/142 
f 110/234/143 111/236/143 127/237/143 
f 127/237/144 126/235/144 110/234/144 
f 111/236/145 112/238/145 128/239/145 
f 128/239/146 127/237/146 111/236/146 
f 112/238/147 113/240/147 129/241/147 
f 129/241/148 128/239/148 112/238/148 
f 113/242/149 99/243/149 115/244/149 
f 115/244/150 129/245/150 113/242/150 
f 115/205/151 114/204/151 35/246/151 
f 35/246/152 34/247/152 115/205/152 
f 114/204/153 116/207/153 36/248/153 
f 36/248/154 35/246/154 114/204/154 
f 116/211/155 117/210/155 37/249/155 
f 37/249/156 36/250/156 116/211/156 
f 117/210/157 118/213/157 38/251/157 
f 38/251/158 37/249/158 117/210/158 
f 118/217/159 119/216/159 39/252/159 
f 39/252/160 38/253/160 118/217/160 
f 119/216/161 120/219/161 40/254/161 
f 40/254/162 39/252/162 119/216/162 
f 120/223/163 121/222/163 41/255/163 
f 41/255/164 40/256/164 120/223/164 
f 121/222/165 122/225/165 42/257/165 
f 42/257/166 41/255/166 121/222/166 
f 122/225/167 123/227/167 43/258/167 
f 43/258/168 42/257/168 122/225/168 
f 123/231/169 124/230/169 44/259/169 
f 44/259/170 43/260/170 123/231/170 
f 124/230/171 125/233/171 45/261/171 
f 45/261/172 44/259/172 124/230/172 
f 125/233/173 126/235/173 46/262/173 
f 46/262/174 45/261/174 125/233/174 
f 126/235/175 127/237/175 47/263/175 
f 47/263/176 46/262/176 126/235/176 
f 127/237/177 128/239/177 48/264/177 
f 48/264/178 47/263/178 127/237/178 
f 128/239/179 129/241/179 49/265/179 
f 49/265/180 48/264/180 128/239/180 
f 129/266/181 115/267/181 34/268/181 
f 34/268/182 49/269/182 129/266/182 
# 240 faces

