# 3ds Max Wavefront OBJ Exporter v0.99 - (c)2007 guruware
# File Created: 09.02.2025 15:18:41

#
# object Cone001
#

v  150.0000 0.0000 0.0000
v  37.9463 2.6957 0.0000
v  101.7737 -8.7586 0.0000
v  150.0000 75.0000 0.0000
v  14.1869 20.0424 0.0000
v  150.0000 150.0000 0.0000
v  7.7210 52.9478 0.0000
v  75.0000 150.0000 0.0000
v  -7.1216 70.3402 0.0000
v  0.0000 150.0000 -0.0000
v  -39.5238 73.4488 0.0000
v  -75.0000 150.0000 0.0000
v  -79.4743 52.2434 0.0000
v  -150.0000 150.0000 0.0000
v  -103.6816 21.9729 0.0000
v  -150.0000 75.0000 0.0000
v  -108.0522 0.0000 0.0000
v  -150.0000 0.0000 0.0000
v  -109.4213 -46.5052 0.0000
v  -150.0000 -75.0000 0.0000
v  -84.0653 -58.0420 0.0000
v  -150.0000 -150.0000 0.0000
v  -34.9397 -46.1951 0.0000
v  -75.0000 -150.0000 0.0000
v  -7.1173 -50.9794 0.0000
v  0.0000 -150.0000 0.0000
v  21.9729 -53.0473 0.0000
v  75.0000 -150.0000 0.0000
v  48.5342 -43.0430 0.0000
v  150.0000 -150.0000 0.0000
v  97.4031 -30.7315 0.0000
v  150.0000 -75.0000 0.0000
v  -2.7403 -1.0646 106.7203
v  63.9753 -15.4319 87.2191
v  22.4095 -4.2447 99.3689
v  5.1832 11.0533 104.4043
v  2.3468 35.8126 105.2333
v  -5.8467 47.4904 107.6283
v  -26.1000 51.1316 113.5484
v  -53.6543 38.5609 121.6027
v  -71.1861 18.9463 126.7273
v  -75.1173 4.2386 127.8764
v  -78.2737 -27.0652 128.7990
v  -64.0048 -35.2298 124.6282
v  -29.4688 -29.3716 114.5331
v  -9.7758 -34.5129 108.7768
v  9.5994 -37.4853 103.1134
v  28.1979 -31.8089 97.6770
v  61.1898 -25.8536 88.0333
v  34.3599 -1.6447 21.2721
v  94.5506 -12.4584 18.4350
v  8.3190 17.3889 22.4996
v  1.7457 50.8784 22.8094
v  -11.0927 65.9389 23.4145
v  -40.2351 68.7379 24.7882
v  -78.0819 48.6267 26.5721
v  -100.9687 19.9757 27.6509
v  -105.0411 -0.5200 27.8428
v  -106.3074 -43.5844 27.9025
v  -85.2004 -53.1987 26.9076
v  -36.7469 -41.5008 24.6238
v  -8.2461 -46.4072 23.2804
v  19.5804 -48.3874 21.9688
v  45.4147 -38.6462 20.7510
v  91.6650 -26.9814 18.5710
v  19.5408 -4.6116 22.9482
v  69.5554 -17.5463 20.5907
v  -1.1870 13.0763 23.9252
v  -4.5998 41.7033 24.0861
v  -14.4588 55.2053 24.5508
v  -38.8288 59.4154 25.6994
v  -71.9838 44.8810 27.2622
v  -93.0792 22.2022 28.2566
v  -97.8094 5.1969 28.4795
v  -101.6074 -30.9970 28.6585
v  -84.4382 -40.4370 27.8493
v  -42.8824 -33.6636 25.8905
v  -19.1865 -39.6081 24.7736
v  4.1269 -43.0449 23.6747
v  26.5058 -36.4817 22.6199
v  66.2036 -29.5961 20.7487
v  20.3016 -4.4966 48.5173
v  67.8023 -16.8345 43.5496
v  0.6157 12.3751 50.5761
v  -2.6256 39.6812 50.9151
v  -11.9890 52.5602 51.8943
v  -35.1341 56.5760 54.3149
v  -66.6226 42.7122 57.6081
v  -86.6577 21.0799 59.7034
v  -91.1501 4.8593 60.1732
v  -94.7572 -29.6645 60.5505
v  -78.4510 -38.6690 58.8451
v  -38.9839 -32.2081 54.7175
v  -16.4791 -37.8783 52.3639
v  5.6625 -41.1565 50.0483
v  26.9165 -34.8962 47.8255
v  64.6190 -28.3283 43.8825
v  16.0410 -4.1700 50.6202
v  57.8752 -15.0360 46.2451
v  -1.2966 10.6891 52.4334
v  -4.1512 34.7378 52.7320
v  -12.3976 46.0804 53.5944
v  -32.7817 49.6172 55.7262
v  -60.5139 37.4073 58.6265
v  -78.1590 18.3555 60.4719
v  -82.1155 4.0699 60.8857
v  -85.2923 -26.3356 61.2179
v  -70.9312 -34.2659 59.7160
v  -36.1723 -28.5757 56.0808
v  -16.3521 -33.5694 54.0080
v  3.1482 -36.4566 51.9686
v  21.8668 -30.9431 50.0109
v  55.0716 -25.1587 46.5383
v  17.1124 -4.1085 80.4241
v  57.3281 -14.6819 72.8153
v  0.4456 10.3502 83.5775
v  -2.2986 33.7511 84.0967
v  -10.2260 44.7881 85.5966
v  -29.8215 48.2296 89.3040
v  -56.4808 36.3486 94.3480
v  -73.4432 17.8101 97.5573
v  -77.2467 3.9093 98.2769
v  -80.3006 -25.6770 98.8547
v  -66.4951 -33.3936 96.2427
v  -33.0809 -27.8568 89.9207
v  -14.0275 -32.7160 86.3158
v  4.7184 -35.5254 82.7691
v  22.7128 -30.1604 79.3645
v  54.6331 -24.5318 73.3252
# 129 vertices

vn 0.0000 0.0000 1.0000
vn -0.0000 0.0000 1.0000
vn -0.0000 -0.0000 1.0000
vn 0.0000 -0.0000 1.0000
vn 0.2806 0.0000 0.9598
vn 0.2806 -0.0000 0.9598
vn 0.1721 0.9591 0.2247
vn 0.1826 0.9477 0.2617
vn 0.5722 0.7837 0.2417
vn 0.5783 0.7747 0.2556
vn 0.9462 0.1859 0.2648
vn 0.9458 0.1832 0.2683
vn 0.7378 0.6296 0.2435
vn 0.7417 0.6222 0.2507
vn 0.0938 0.9776 0.1885
vn 0.1030 0.9742 0.2006
vn -0.4640 0.8742 0.1433
vn -0.4581 0.8756 0.1533
vn -0.7753 0.6200 0.1208
vn -0.7729 0.6221 0.1252
vn -0.9749 0.1939 0.1091
vn -0.9747 0.1947 0.1097
vn -0.9937 0.0293 0.1078
vn -0.9937 0.0294 0.1080
vn -0.4098 -0.9006 0.1448
vn -0.4050 -0.9036 0.1398
vn 0.2298 -0.9528 0.1985
vn 0.2389 -0.9539 0.1818
vn -0.1666 -0.9690 0.1822
vn -0.1591 -0.9719 0.1736
vn -0.0695 -0.9774 0.1997
vn -0.0608 -0.9800 0.1895
vn 0.3418 -0.9076 0.2437
vn 0.3528 -0.9068 0.2308
vn 0.2358 -0.9359 0.2618
vn 0.2481 -0.9395 0.2364
vn 0.9271 -0.1844 0.3263
vn 0.9286 -0.1815 0.3236
vn 0.0770 0.1706 0.9823
vn 0.0686 0.0841 0.9941
vn 0.1095 0.0860 0.9903
vn 0.0999 0.0622 0.9931
vn 0.1648 0.0232 0.9861
vn 0.1432 0.0115 0.9896
vn 0.1240 0.0659 0.9901
vn 0.1210 0.0542 0.9912
vn 0.0569 0.1056 0.9928
vn 0.0617 0.0859 0.9944
vn -0.0269 0.1385 0.9900
vn 0.0040 0.0979 0.9952
vn -0.1112 0.1260 0.9858
vn -0.0546 0.0943 0.9940
vn -0.1125 0.0316 0.9932
vn -0.0869 0.0372 0.9955
vn -0.1759 0.0065 0.9844
vn -0.0998 0.0154 0.9949
vn 0.0131 -0.0744 0.9971
vn 0.0117 -0.0643 0.9979
vn 0.0719 -0.1041 0.9920
vn 0.0595 -0.0770 0.9953
vn 0.0127 -0.1950 0.9807
vn 0.0081 -0.1534 0.9881
vn 0.0299 -0.2244 0.9740
vn 0.0190 -0.1852 0.9825
vn 0.0860 -0.1042 0.9908
vn 0.0756 -0.0982 0.9923
vn 0.1078 -0.2473 0.9629
vn 0.0768 -0.1762 0.9814
vn 0.0876 -0.0081 0.9961
vn 0.0863 -0.0110 0.9962
vn 0.2498 0.9682 -0.0118
vn 0.2503 0.9681 -0.0109
vn 0.6483 0.7610 -0.0238
vn 0.6492 0.7603 -0.0227
vn 0.9909 0.1185 -0.0640
vn 0.9909 0.1184 -0.0639
vn 0.8073 0.5900 -0.0158
vn 0.8082 0.5887 -0.0151
vn 0.1732 0.9820 0.0751
vn 0.1784 0.9808 0.0788
vn -0.3925 0.9099 0.1344
vn -0.3866 0.9115 0.1404
vn -0.7177 0.6751 0.1707
vn -0.7139 0.6781 0.1746
vn -0.9431 0.2650 0.2010
vn -0.9423 0.2668 0.2020
vn -0.9734 0.1032 0.2048
vn -0.9731 0.1039 0.2056
vn -0.4719 -0.8703 0.1408
vn -0.4678 -0.8731 0.1370
vn 0.1621 -0.9864 0.0279
vn 0.1640 -0.9862 0.0246
vn -0.2387 -0.9674 0.0841
vn -0.2356 -0.9685 0.0808
vn -0.1417 -0.9868 0.0789
vn -0.1383 -0.9875 0.0755
vn 0.2834 -0.9574 0.0556
vn 0.2871 -0.9565 0.0518
vn 0.1735 -0.9826 0.0657
vn 0.1773 -0.9824 0.0589
vn 0.9605 -0.2661 0.0816
vn 0.9612 -0.2639 0.0803
vn 0.2692 0.8714 0.4101
vn 0.4297 0.4028 0.8081
vn 0.6629 0.0694 0.7455
vn 0.3848 0.2115 0.8985
vn 0.1425 0.2428 0.9596
vn 0.0130 0.2030 0.9791
vn -0.0453 0.1378 0.9894
vn -0.0742 0.0494 0.9960
vn -0.0770 0.0189 0.9969
vn -0.0023 -0.1902 0.9817
vn 0.1662 -0.4566 0.8740
vn 0.0078 -0.3567 0.9342
vn 0.0447 -0.3573 0.9329
vn 0.1827 -0.2865 0.9405
vn 0.1536 -0.3205 0.9347
vn 0.2546 -0.0425 0.9661
vn 0.2503 0.9681 -0.0110
vn 0.2529 0.9675 -0.0077
vn 0.6488 0.7604 -0.0280
vn 0.6524 0.7575 -0.0250
vn 0.9915 0.1184 -0.0548
vn 0.9916 0.1175 -0.0542
vn 0.8073 0.5893 -0.0310
vn 0.8100 0.5857 -0.0294
vn 0.1735 0.9845 0.0254
vn 0.1780 0.9836 0.0276
vn -0.3956 0.9156 0.0718
vn -0.3945 0.9160 0.0726
vn -0.7249 0.6813 0.1022
vn -0.7251 0.6811 0.1020
vn -0.9552 0.2682 0.1255
vn -0.9553 0.2679 0.1254
vn -0.9861 0.1044 0.1290
vn -0.9862 0.1043 0.1289
vn -0.4756 -0.8761 0.0787
vn -0.4751 -0.8765 0.0783
vn 0.1622 -0.9867 0.0061
vn 0.1641 -0.9864 0.0036
vn -0.2399 -0.9699 0.0429
vn -0.2393 -0.9700 0.0425
vn -0.1426 -0.9891 0.0372
vn -0.1414 -0.9893 0.0363
vn 0.2842 -0.9586 0.0174
vn 0.2882 -0.9575 0.0143
vn 0.1742 -0.9844 0.0259
vn 0.1775 -0.9839 0.0211
vn 0.9636 -0.2662 0.0234
vn 0.9646 -0.2628 0.0219
vn 0.2430 0.9681 -0.0610
vn 0.2426 0.9682 -0.0615
vn 0.6276 0.7601 -0.1684
vn 0.6262 0.7610 -0.1696
vn 0.9673 0.1184 -0.2242
vn 0.9674 0.1183 -0.2240
vn 0.7763 0.5883 -0.2265
vn 0.7745 0.5901 -0.2278
vn 0.1456 0.9794 -0.1396
vn 0.1333 0.9802 -0.1467
vn -0.4118 0.9107 -0.0312
vn -0.4250 0.9041 -0.0430
vn -0.7348 0.6776 0.0305
vn -0.7424 0.6695 0.0227
vn -0.9616 0.2665 0.0662
vn -0.9628 0.2624 0.0643
vn -0.9920 0.1038 0.0720
vn -0.9923 0.1021 0.0702
vn -0.4898 -0.8717 -0.0134
vn -0.4981 -0.8671 -0.0065
vn 0.1477 -0.9856 -0.0823
vn 0.1450 -0.9865 -0.0765
vn -0.2523 -0.9672 -0.0296
vn -0.2584 -0.9658 -0.0215
vn -0.1585 -0.9857 -0.0569
vn -0.1650 -0.9851 -0.0476
vn 0.2537 -0.9536 -0.1618
vn 0.2477 -0.9569 -0.1516
vn 0.1437 -0.9779 -0.1519
vn 0.1392 -0.9817 -0.1301
vn 0.8715 -0.2600 -0.4157
vn 0.8716 -0.2652 -0.4124
# 182 vertex normals

vt 1.0000 0.0000 0.5000
vt 0.6265 0.0000 0.4910
vt 0.8392 0.0000 0.5292
vt 1.0000 0.0000 0.2500
vt 0.5473 0.0000 0.4332
vt 1.0000 0.0000 0.0000
vt 0.5257 0.0000 0.3235
vt 0.7500 0.0000 0.0000
vt 0.4763 0.0000 0.2655
vt 0.5000 0.0000 0.0000
vt 0.3683 0.0000 0.2552
vt 0.2500 0.0000 0.0000
vt 0.2351 0.0000 0.3259
vt 0.0000 0.0000 0.0000
vt 0.1544 0.0000 0.4268
vt 0.0000 0.0000 0.2500
vt 0.1398 0.0000 0.5000
vt 0.0000 0.0000 0.5000
vt 0.1353 0.0000 0.6550
vt 0.0000 0.0000 0.7500
vt 0.2198 0.0000 0.6935
vt 0.0000 0.0000 1.0000
vt 0.3835 0.0000 0.6540
vt 0.2500 0.0000 1.0000
vt 0.4763 0.0000 0.6699
vt 0.5000 0.0000 1.0000
vt 0.5732 0.0000 0.6768
vt 0.7500 0.0000 1.0000
vt 0.6618 0.0000 0.6435
vt 1.0000 0.0000 1.0000
vt 0.8247 0.0000 0.6024
vt 1.0000 0.0000 0.7500
vt 0.4909 0.8286 0.5035
vt 0.7133 0.6772 0.5514
vt 0.5747 0.7715 0.5141
vt 0.5173 0.8106 0.4632
vt 0.5078 0.8170 0.3806
vt 0.4805 0.8356 0.3417
vt 0.4130 0.8816 0.3296
vt 0.3212 0.9441 0.3715
vt 0.2627 0.9839 0.4368
vt 0.2496 0.9928 0.4859
vt 0.2391 1.0000 0.5902
vt 0.2867 0.9676 0.6174
vt 0.4018 0.8892 0.5979
vt 0.4674 0.8445 0.6150
vt 0.5320 0.8006 0.6250
vt 0.5940 0.7584 0.6060
vt 0.7040 0.6835 0.5862
vt 0.6145 0.1652 0.5055
vt 0.8152 0.1431 0.5415
vt 0.5277 0.1747 0.4420
vt 0.5058 0.1771 0.3304
vt 0.4630 0.1818 0.2802
vt 0.3659 0.1925 0.2709
vt 0.2397 0.2063 0.3379
vt 0.1634 0.2147 0.4334
vt 0.1499 0.2162 0.5017
vt 0.1456 0.2166 0.6453
vt 0.2160 0.2089 0.6773
vt 0.3775 0.1912 0.6383
vt 0.4725 0.1807 0.6547
vt 0.5653 0.1706 0.6613
vt 0.6514 0.1611 0.6288
vt 0.8055 0.1442 0.5899
vt 0.5651 0.1782 0.5154
vt 0.7319 0.1599 0.5585
vt 0.4960 0.1858 0.4564
vt 0.4847 0.1870 0.3610
vt 0.4518 0.1906 0.3160
vt 0.3706 0.1995 0.3019
vt 0.2601 0.2117 0.3504
vt 0.1897 0.2194 0.4260
vt 0.1740 0.2211 0.4827
vt 0.1613 0.2225 0.6033
vt 0.2185 0.2162 0.6348
vt 0.3571 0.2010 0.6122
vt 0.4360 0.1923 0.6320
vt 0.5138 0.1838 0.6435
vt 0.5884 0.1756 0.6216
vt 0.7207 0.1611 0.5987
vt 0.5677 0.3767 0.5150
vt 0.7260 0.3381 0.5561
vt 0.5021 0.3927 0.4587
vt 0.4912 0.3953 0.3677
vt 0.4600 0.4029 0.3248
vt 0.3829 0.4217 0.3114
vt 0.2779 0.4473 0.3576
vt 0.2111 0.4635 0.4297
vt 0.1962 0.4672 0.4838
vt 0.1841 0.4701 0.5989
vt 0.2385 0.4569 0.6289
vt 0.3701 0.4248 0.6074
vt 0.4451 0.4066 0.6263
vt 0.5189 0.3886 0.6372
vt 0.5897 0.3713 0.6163
vt 0.7154 0.3407 0.5944
vt 0.5535 0.3930 0.5139
vt 0.6929 0.3590 0.5501
vt 0.4957 0.4071 0.4644
vt 0.4862 0.4094 0.3842
vt 0.4587 0.4161 0.3464
vt 0.3907 0.4327 0.3346
vt 0.2983 0.4552 0.3753
vt 0.2395 0.4695 0.4388
vt 0.2263 0.4727 0.4864
vt 0.2157 0.4753 0.5878
vt 0.2636 0.4636 0.6142
vt 0.3794 0.4354 0.5953
vt 0.4455 0.4193 0.6119
vt 0.5105 0.4035 0.6215
vt 0.5729 0.3883 0.6031
vt 0.6836 0.3613 0.5839
vt 0.5570 0.6244 0.5137
vt 0.6911 0.5653 0.5489
vt 0.5015 0.6489 0.4655
vt 0.4923 0.6529 0.3875
vt 0.4659 0.6646 0.3507
vt 0.4006 0.6934 0.3392
vt 0.3117 0.7325 0.3788
vt 0.2552 0.7574 0.4406
vt 0.2425 0.7630 0.4870
vt 0.2323 0.7675 0.5856
vt 0.2783 0.7472 0.6113
vt 0.3897 0.6981 0.5929
vt 0.4532 0.6702 0.6091
vt 0.5157 0.6426 0.6184
vt 0.5757 0.6162 0.6005
vt 0.6821 0.5693 0.5818
# 129 texture coords

o Cone001
g Cone001
f 1/1/1 2/2/1 3/3/1 
f 1/1/1 4/4/1 2/2/1 
f 4/4/1 5/5/1 2/2/1 
f 4/4/1 6/6/1 5/5/1 
f 6/6/1 7/7/1 5/5/1 
f 6/6/1 8/8/2 7/7/1 
f 8/8/2 9/9/1 7/7/1 
f 8/8/2 10/10/2 9/9/1 
f 10/10/2 11/11/2 9/9/1 
f 10/10/2 12/12/2 11/11/2 
f 12/12/2 13/13/2 11/11/2 
f 12/12/2 14/14/2 13/13/2 
f 14/14/2 15/15/2 13/13/2 
f 14/14/2 16/16/3 15/15/2 
f 16/16/3 17/17/3 15/15/2 
f 16/16/3 18/18/3 17/17/3 
f 18/18/3 19/19/3 17/17/3 
f 18/18/3 20/20/3 19/19/3 
f 20/20/3 21/21/3 19/19/3 
f 20/20/3 22/22/3 21/21/3 
f 22/22/3 23/23/3 21/21/3 
f 22/22/3 24/24/3 23/23/3 
f 24/24/3 25/25/4 23/23/3 
f 24/24/3 26/26/4 25/25/4 
f 26/26/4 27/27/4 25/25/4 
f 26/26/4 28/28/4 27/27/4 
f 28/28/4 29/29/4 27/27/4 
f 28/28/4 30/30/4 29/29/4 
f 30/30/4 31/31/4 29/29/4 
f 30/30/4 32/32/4 31/31/4 
f 32/32/4 3/3/1 31/31/4 
f 32/32/4 1/1/1 3/3/1 
f 33/33/5 34/34/6 35/35/5 
f 33/33/5 35/35/5 36/36/6 
f 33/33/5 36/36/6 37/37/6 
f 33/33/5 37/37/6 38/38/6 
f 33/33/5 38/38/6 39/39/6 
f 33/33/5 39/39/6 40/40/5 
f 33/33/5 40/40/5 41/41/6 
f 33/33/5 41/41/6 42/42/6 
f 33/33/5 42/42/6 43/43/5 
f 33/33/5 43/43/5 44/44/5 
f 33/33/5 44/44/5 45/45/6 
f 33/33/5 45/45/6 46/46/5 
f 33/33/5 46/46/5 47/47/5 
f 33/33/5 47/47/5 48/48/5 
f 33/33/5 48/48/5 49/49/6 
f 33/33/5 49/49/6 34/34/6 
f 3/3/7 2/2/7 50/50/7 
f 50/50/8 51/51/8 3/3/8 
f 2/2/9 5/5/9 52/52/9 
f 52/52/10 50/50/10 2/2/10 
f 5/5/11 7/7/11 53/53/11 
f 53/53/12 52/52/12 5/5/12 
f 7/7/13 9/9/13 54/54/13 
f 54/54/14 53/53/14 7/7/14 
f 9/9/15 11/11/15 55/55/15 
f 55/55/16 54/54/16 9/9/16 
f 11/11/17 13/13/17 56/56/17 
f 56/56/18 55/55/18 11/11/18 
f 13/13/19 15/15/19 57/57/19 
f 57/57/20 56/56/20 13/13/20 
f 15/15/21 17/17/21 58/58/21 
f 58/58/22 57/57/22 15/15/22 
f 17/17/23 19/19/23 59/59/23 
f 59/59/24 58/58/24 17/17/24 
f 19/19/25 21/21/25 60/60/25 
f 60/60/26 59/59/26 19/19/26 
f 21/21/27 23/23/27 61/61/27 
f 61/61/28 60/60/28 21/21/28 
f 23/23/29 25/25/29 62/62/29 
f 62/62/30 61/61/30 23/23/30 
f 25/25/31 27/27/31 63/63/31 
f 63/63/32 62/62/32 25/25/32 
f 27/27/33 29/29/33 64/64/33 
f 64/64/34 63/63/34 27/27/34 
f 29/29/35 31/31/35 65/65/35 
f 65/65/36 64/64/36 29/29/36 
f 31/31/37 3/3/37 51/51/37 
f 51/51/38 65/65/38 31/31/38 
f 51/51/39 50/50/39 66/66/39 
f 66/66/40 67/67/40 51/51/40 
f 50/50/41 52/52/41 68/68/41 
f 68/68/42 66/66/42 50/50/42 
f 52/52/43 53/53/43 69/69/43 
f 69/69/44 68/68/44 52/52/44 
f 53/53/45 54/54/45 70/70/45 
f 70/70/46 69/69/46 53/53/46 
f 54/54/47 55/55/47 71/71/47 
f 71/71/48 70/70/48 54/54/48 
f 55/55/49 56/56/49 72/72/49 
f 72/72/50 71/71/50 55/55/50 
f 56/56/51 57/57/51 73/73/51 
f 73/73/52 72/72/52 56/56/52 
f 57/57/53 58/58/53 74/74/53 
f 74/74/54 73/73/54 57/57/54 
f 58/58/55 59/59/55 75/75/55 
f 75/75/56 74/74/56 58/58/56 
f 59/59/57 60/60/57 76/76/57 
f 76/76/58 75/75/58 59/59/58 
f 60/60/59 61/61/59 77/77/59 
f 77/77/60 76/76/60 60/60/60 
f 61/61/61 62/62/61 78/78/61 
f 78/78/62 77/77/62 61/61/62 
f 62/62/63 63/63/63 79/79/63 
f 79/79/64 78/78/64 62/62/64 
f 63/63/65 64/64/65 80/80/65 
f 80/80/66 79/79/66 63/63/66 
f 64/64/67 65/65/67 81/81/67 
f 81/81/68 80/80/68 64/64/68 
f 65/65/69 51/51/69 67/67/69 
f 67/67/70 81/81/70 65/65/70 
f 67/67/71 66/66/71 82/82/71 
f 82/82/72 83/83/72 67/67/72 
f 66/66/73 68/68/73 84/84/73 
f 84/84/74 82/82/74 66/66/74 
f 68/68/75 69/69/75 85/85/75 
f 85/85/76 84/84/76 68/68/76 
f 69/69/77 70/70/77 86/86/77 
f 86/86/78 85/85/78 69/69/78 
f 70/70/79 71/71/79 87/87/79 
f 87/87/80 86/86/80 70/70/80 
f 71/71/81 72/72/81 88/88/81 
f 88/88/82 87/87/82 71/71/82 
f 72/72/83 73/73/83 89/89/83 
f 89/89/84 88/88/84 72/72/84 
f 73/73/85 74/74/85 90/90/85 
f 90/90/86 89/89/86 73/73/86 
f 74/74/87 75/75/87 91/91/87 
f 91/91/88 90/90/88 74/74/88 
f 75/75/89 76/76/89 92/92/89 
f 92/92/90 91/91/90 75/75/90 
f 76/76/91 77/77/91 93/93/91 
f 93/93/92 92/92/92 76/76/92 
f 77/77/93 78/78/93 94/94/93 
f 94/94/94 93/93/94 77/77/94 
f 78/78/95 79/79/95 95/95/95 
f 95/95/96 94/94/96 78/78/96 
f 79/79/97 80/80/97 96/96/97 
f 96/96/98 95/95/98 79/79/98 
f 80/80/99 81/81/99 97/97/99 
f 97/97/100 96/96/100 80/80/100 
f 81/81/101 67/67/101 83/83/101 
f 83/83/102 97/97/102 81/81/102 
f 83/83/103 82/82/103 98/98/103 
f 98/98/103 99/99/103 83/83/103 
f 82/82/104 84/84/104 100/100/104 
f 100/100/104 98/98/104 82/82/104 
f 84/84/105 85/85/105 101/101/105 
f 101/101/105 100/100/105 84/84/105 
f 85/85/106 86/86/106 102/102/106 
f 102/102/106 101/101/106 85/85/106 
f 86/86/107 87/87/107 103/103/107 
f 103/103/107 102/102/107 86/86/107 
f 87/87/108 88/88/108 104/104/108 
f 104/104/108 103/103/108 87/87/108 
f 88/88/109 89/89/109 105/105/109 
f 105/105/109 104/104/109 88/88/109 
f 89/89/110 90/90/110 106/106/110 
f 106/106/110 105/105/110 89/89/110 
f 90/90/111 91/91/111 107/107/111 
f 107/107/111 106/106/111 90/90/111 
f 91/91/112 92/92/112 108/108/112 
f 108/108/112 107/107/112 91/91/112 
f 92/92/113 93/93/113 109/109/113 
f 109/109/113 108/108/113 92/92/113 
f 93/93/114 94/94/114 110/110/114 
f 110/110/114 109/109/114 93/93/114 
f 94/94/115 95/95/115 111/111/115 
f 111/111/115 110/110/115 94/94/115 
f 95/95/116 96/96/116 112/112/116 
f 112/112/116 111/111/116 95/95/116 
f 96/96/117 97/97/117 113/113/117 
f 113/113/117 112/112/117 96/96/117 
f 97/97/118 83/83/118 99/99/118 
f 99/99/118 113/113/118 97/97/118 
f 99/99/119 98/98/119 114/114/119 
f 114/114/120 115/115/120 99/99/120 
f 98/98/121 100/100/121 116/116/121 
f 116/116/122 114/114/122 98/98/122 
f 100/100/123 101/101/123 117/117/123 
f 117/117/124 116/116/124 100/100/124 
f 101/101/125 102/102/125 118/118/125 
f 118/118/126 117/117/126 101/101/126 
f 102/102/127 103/103/127 119/119/127 
f 119/119/128 118/118/128 102/102/128 
f 103/103/129 104/104/129 120/120/129 
f 120/120/130 119/119/130 103/103/130 
f 104/104/131 105/105/131 121/121/131 
f 121/121/132 120/120/132 104/104/132 
f 105/105/133 106/106/133 122/122/133 
f 122/122/134 121/121/134 105/105/134 
f 106/106/135 107/107/135 123/123/135 
f 123/123/136 122/122/136 106/106/136 
f 107/107/137 108/108/137 124/124/137 
f 124/124/138 123/123/138 107/107/138 
f 108/108/139 109/109/139 125/125/139 
f 125/125/140 124/124/140 108/108/140 
f 109/109/141 110/110/141 126/126/141 
f 126/126/142 125/125/142 109/109/142 
f 110/110/143 111/111/143 127/127/143 
f 127/127/144 126/126/144 110/110/144 
f 111/111/145 112/112/145 128/128/145 
f 128/128/146 127/127/146 111/111/146 
f 112/112/147 113/113/147 129/129/147 
f 129/129/148 128/128/148 112/112/148 
f 113/113/149 99/99/149 115/115/149 
f 115/115/150 129/129/150 113/113/150 
f 115/115/151 114/114/151 35/35/151 
f 35/35/152 34/34/152 115/115/152 
f 114/114/153 116/116/153 36/36/153 
f 36/36/154 35/35/154 114/114/154 
f 116/116/155 117/117/155 37/37/155 
f 37/37/156 36/36/156 116/116/156 
f 117/117/157 118/118/157 38/38/157 
f 38/38/158 37/37/158 117/117/158 
f 118/118/159 119/119/159 39/39/159 
f 39/39/160 38/38/160 118/118/160 
f 119/119/161 120/120/161 40/40/161 
f 40/40/162 39/39/162 119/119/162 
f 120/120/163 121/121/163 41/41/163 
f 41/41/164 40/40/164 120/120/164 
f 121/121/165 122/122/165 42/42/165 
f 42/42/166 41/41/166 121/121/166 
f 122/122/167 123/123/167 43/43/167 
f 43/43/168 42/42/168 122/122/168 
f 123/123/169 124/124/169 44/44/169 
f 44/44/170 43/43/170 123/123/170 
f 124/124/171 125/125/171 45/45/171 
f 45/45/172 44/44/172 124/124/172 
f 125/125/173 126/126/173 46/46/173 
f 46/46/174 45/45/174 125/125/174 
f 126/126/175 127/127/175 47/47/175 
f 47/47/176 46/46/176 126/126/176 
f 127/127/177 128/128/177 48/48/177 
f 48/48/178 47/47/178 127/127/178 
f 128/128/179 129/129/179 49/49/179 
f 49/49/180 48/48/180 128/128/180 
f 129/129/181 115/115/181 34/34/181 
f 34/34/182 49/49/182 129/129/182 
# 240 faces

