# 3ds Max Wavefront OBJ Exporter v0.99 - (c)2007 guruware
# File Created: 30.11.2024 18:22:24

#
# object Plane001
#

v  499.9999 -500.2030 -500.0001
v  499.9999 499.2555 -500.0001
v  -499.9999 -500.2030 -499.9999
v  -500.0000 500.2031 -499.9999
v  500.0000 499.7969 500.0000
v  499.9999 500.0677 -500.0000
v  500.0001 -500.2031 499.9999
v  -499.9999 -500.2031 500.0000
v  -499.9999 499.7969 500.0001
v  -499.9999 499.3909 -499.9999
v  500.0001 499.7969 500.0000
# 11 vertices

vn -0.5774 0.5774 0.5774
vn 0.0000 0.0000 1.0000
vn 0.5774 0.5774 0.5774
vn -1.0000 -0.0000 -0.0000
vn -0.5765 0.5790 -0.5765
vn 0.5790 0.5765 -0.5765
vn 0.7070 -0.7072 -0.0000
vn 0.7087 -0.7055 -0.0000
vn -0.0000 -1.0000 -0.0000
vn -0.0000 0.0000 -1.0000
# 10 vertex normals

vt 0.2500 0.3333 0.0000
vt 0.2500 0.0000 0.0000
vt 0.5000 0.3333 0.0000
vt 0.5000 0.0000 0.0000
vt 0.0000 0.6667 0.0000
vt 0.0000 0.3333 0.0000
vt 0.2500 0.6667 0.0000
vt 0.5000 0.6667 0.0000
vt 0.7500 0.6667 0.0000
vt 0.7500 0.3333 0.0000
vt 1.0000 0.6667 0.0000
vt 1.0000 0.3333 0.0000
vt 0.2500 1.0000 0.0000
vt 0.5000 1.0000 0.0000
# 14 texture coords

o Plane001
g Plane001
s 1
f 1/1/1 2/2/2 3/3/3 
f 4/4/2 3/3/3 2/2/2 
f 5/5/4 6/6/4 7/7/5 
f 1/1/1 7/7/5 6/6/4 
f 7/7/5 1/1/1 8/8/6 
f 3/3/3 8/8/6 1/1/1 
f 8/8/6 3/3/3 9/9/7 
f 10/10/8 9/9/7 3/3/3 
f 9/9/7 10/10/8 5/11/9 
f 6/12/9 5/11/9 10/10/8 
f 11/13/10 7/7/5 9/14/10 
f 8/8/6 9/14/10 7/7/5 
# 12 faces

