# 3ds Max Wavefront OBJ Exporter v0.99 - (c)2007 guruware
# File Created: 30.11.2024 16:07:55

#
# object Plane001
#

v  -150.0000 -50.0000 0.0000
v  -150.0000 -150.0000 0.0000
v  -50.0000 -50.0000 0.0000
v  -50.0000 -150.0000 0.0000
v  50.0000 -50.0000 0.0000
v  50.0000 -150.0000 0.0000
v  150.0000 -50.0000 0.0000
v  150.0000 -150.0000 0.0000
v  -150.0000 50.0000 0.0000
v  -50.0000 50.0000 0.0000
v  -50.0000 50.0000 100.0000
v  -50.0000 -50.0000 100.0000
v  50.0000 50.0000 100.0000
v  50.0000 -50.0000 100.0000
v  50.0000 50.0000 0.0000
v  150.0000 50.0000 0.0000
v  -150.0000 150.0000 0.0000
v  -50.0000 150.0000 0.0000
v  50.0000 150.0000 0.0000
v  150.0000 150.0000 0.0000
# 20 vertices

vn 0.0000 0.0000 1.0000
vn 0.0000 -1.0000 0.0000
vn -1.0000 0.0000 0.0000
vn 0.0000 1.0000 0.0000
vn 1.0000 0.0000 0.0000
# 5 vertex normals

vt -1.0000 0.0000 0.0000
vt -1.0000 -1.0000 0.0000
vt -0.0000 0.0000 0.0000
vt -0.0000 -1.0000 0.0000
vt 1.0000 -0.0000 0.0000
vt 1.0000 -1.0000 0.0000
vt 2.0000 -0.0000 0.0000
vt 2.0000 -1.0000 0.0000
vt -1.0000 1.0000 0.0000
vt 0.0000 1.0000 0.0000
vt 0.0000 1.0000 1.0000
vt -0.0000 0.0000 1.0000
vt 1.0000 1.0000 1.0000
vt 1.0000 -0.0000 1.0000
vt 1.0000 1.0000 0.0000
vt 2.0000 1.0000 0.0000
vt -1.0000 2.0000 0.0000
vt 0.0000 2.0000 0.0000
vt 1.0000 2.0000 0.0000
vt 2.0000 2.0000 0.0000
vt 1.0000 0.0000 -0.0000
vt 1.0000 1.0000 -0.0000
vt -0.0000 1.0000 0.0000
vt 1.0000 0.0000 1.0000
vt -0.0000 1.0000 1.0000
# 25 texture coords

o Plane001
g Plane001
s 1
f 1/1/1 2/2/1 3/3/1 
f 4/4/1 3/3/1 2/2/1 
f 3/3/1 4/4/1 5/5/1 
f 6/6/1 5/5/1 4/4/1 
f 5/5/1 6/6/1 7/7/1 
f 8/8/1 7/7/1 6/6/1 
f 9/9/1 1/1/1 10/10/1 
f 3/3/1 10/10/1 1/1/1 
f 11/11/1 12/12/1 13/13/1 
f 14/14/1 13/13/1 12/12/1 
f 15/15/1 5/5/1 16/16/1 
f 7/7/1 16/16/1 5/5/1 
f 17/17/1 9/9/1 18/18/1 
f 10/10/1 18/18/1 9/9/1 
f 18/18/1 10/10/1 19/19/1 
f 15/15/1 19/19/1 10/10/1 
f 19/19/1 15/15/1 20/20/1 
f 16/16/1 20/20/1 15/15/1 
s off
f 3/3/2 5/21/2 14/22/2 
f 14/22/2 12/23/2 3/3/2 
f 10/3/3 3/21/3 12/22/3 
f 12/22/3 11/23/3 10/3/3 
f 15/12/4 10/24/4 11/13/4 
f 11/13/4 13/25/4 15/12/4 
f 5/12/5 15/24/5 13/13/5 
f 13/13/5 14/25/5 5/12/5 
# 26 faces

