# 3ds Max Wavefront OBJ Exporter v0.99 - (c)2007 guruware
# File Created: 06.01.2025 16:27:24

#
# object Tube001
#

v  -28.2843 -0.0000 28.2843
v  28.2843 150.0000 28.2843
v  28.2843 0.0000 28.2843
v  -28.2843 150.0000 28.2843
v  35.3553 150.0000 35.3554
v  -35.3554 150.0000 35.3554
v  35.3553 0.0000 35.3553
v  -35.3553 -0.0000 35.3553
v  28.2842 150.0000 -28.2843
v  28.2843 0.0000 -28.2843
v  35.3553 150.0000 -35.3553
v  35.3553 0.0000 -35.3553
v  -28.2843 150.0000 -28.2842
v  -28.2843 -0.0000 -28.2843
v  -35.3554 150.0000 -35.3553
v  -35.3553 -0.0000 -35.3553
# 16 vertices

vn 0.7071 0.0000 -0.7071
vn -0.7071 -0.0000 -0.7071
vn -0.0000 1.0000 0.0000
vn -0.7071 -0.0000 0.7071
vn 0.7071 0.0000 0.7071
vn 0.0000 -1.0000 -0.0000
# 6 vertex normals

vt -0.3000 2.0000 0.5000
vt 0.5000 -1.0000 1.3000
vt 0.5000 2.0000 1.3000
vt -0.3000 -1.0000 0.5000
vt 0.5000 1.3000 -1.0000
vt -0.5000 0.5000 -1.0000
vt -0.3000 0.5000 -1.0000
vt 0.5000 1.5000 -1.0000
vt 1.5000 -1.0000 0.5000
vt 0.5000 2.0000 1.5000
vt 0.5000 -1.0000 1.5000
vt 1.5000 2.0000 0.5000
vt 0.5000 1.5000 2.0000
vt 1.3000 0.5000 2.0000
vt 1.5000 0.5000 2.0000
vt 0.5000 1.3000 2.0000
vt 0.5000 -1.0000 -0.3000
vt 0.5000 2.0000 -0.3000
vt 0.5000 -0.5000 -1.0000
vt 0.5000 -0.3000 -1.0000
vt 0.5000 2.0000 -0.5000
vt 0.5000 -1.0000 -0.5000
vt 0.5000 -0.3000 2.0000
vt 0.5000 -0.5000 2.0000
vt 1.5000 0.5000 -1.0000
vt 1.3000 0.5000 -1.0000
vt -0.3000 0.5000 2.0000
vt -0.5000 0.5000 2.0000
# 28 texture coords

o Tube001
g Tube001
s 2
f 1/1/1 2/2/2 3/3/2 
f 1/1/1 4/4/1 2/2/2 
s 4
f 4/5/3 5/6/3 2/7/3 
f 4/5/3 6/8/3 5/6/3 
s 2
f 6/9/4 7/10/5 5/11/5 
f 6/9/4 8/12/4 7/10/5 
s 4
f 8/13/6 3/14/6 7/15/6 
f 8/13/6 1/16/6 3/14/6 
s 2
f 3/1/2 9/17/4 10/18/4 
f 3/1/2 2/4/2 9/17/4 
s 4
f 2/7/3 11/19/3 9/20/3 
f 2/7/3 5/6/3 11/19/3 
s 2
f 5/9/5 12/21/1 11/22/1 
f 5/9/5 7/12/5 12/21/1 
s 4
f 7/15/6 10/23/6 12/24/6 
f 7/15/6 3/14/6 10/23/6 
s 2
f 10/1/4 13/17/5 14/18/5 
f 10/1/4 9/4/4 13/17/5 
s 4
f 9/20/3 15/25/3 13/26/3 
f 9/20/3 11/19/3 15/25/3 
s 2
f 11/9/1 16/21/2 15/22/2 
f 11/9/1 12/12/1 16/21/2 
s 4
f 12/24/6 14/27/6 16/28/6 
f 12/24/6 10/23/6 14/27/6 
s 2
f 14/1/5 4/2/1 1/3/1 
f 14/1/5 13/4/5 4/2/1 
s 4
f 13/26/3 6/8/3 4/5/3 
f 13/26/3 15/25/3 6/8/3 
s 2
f 15/9/2 8/10/4 6/11/4 
f 15/9/2 16/12/2 8/10/4 
s 4
f 16/28/6 1/16/6 8/13/6 
f 16/28/6 14/27/6 1/16/6 
# 32 faces

#
# object Box001
#

v  -20.0000 150.0000 -20.0000
v  -20.0000 150.0000 20.0000
v  20.0000 150.0000 20.0000
v  20.0000 150.0000 -20.0000
v  -20.0000 110.0000 -20.0000
v  20.0000 110.0000 -20.0000
v  20.0000 110.0000 20.0000
v  -20.0000 110.0000 20.0000
# 8 vertices

vn 0.0000 1.0000 0.0000
vn 0.0000 -1.0000 -0.0000
vn 0.0000 0.0000 -1.0000
vn 1.0000 0.0000 0.0000
vn 0.0000 -0.0000 1.0000
vn -1.0000 0.0000 0.0000
# 6 vertex normals

vt 0.9000 0.1000 0.1000
vt 0.9000 0.9000 0.1000
vt 0.1000 0.9000 0.1000
vt 0.1000 0.1000 0.1000
vt 0.1000 0.1000 0.9000
vt 0.9000 0.1000 0.9000
vt 0.9000 0.9000 0.9000
vt 0.1000 0.9000 0.9000
# 8 texture coords

o Box001
g Box001
s 2
f 17/29/7 18/30/7 19/31/7 
f 19/31/7 20/32/7 17/29/7 
s 4
f 21/33/8 22/34/8 23/35/8 
f 23/35/8 24/36/8 21/33/8 
s 8
f 17/32/9 20/29/9 22/30/9 
f 22/30/9 21/31/9 17/32/9 
s 16
f 20/33/10 19/34/10 23/35/10 
f 23/35/10 22/36/10 20/33/10 
s 32
f 19/33/11 18/34/11 24/35/11 
f 24/35/11 23/36/11 19/33/11 
s 64
f 18/32/12 17/29/12 21/30/12 
f 21/30/12 24/31/12 18/32/12 
# 12 faces

